<?xml version="1.0" encoding="UTF-8" standalone="no"?>
<svg
   width="128"
   height="128"
   viewBox="0 0 128 128"
   fill="none"
   version="1.1"
   id="svg7"
   xml:space="preserve"
   xmlns="http://www.w3.org/2000/svg"
   xmlns:svg="http://www.w3.org/2000/svg"><defs
     id="defs7" /><rect
     style="font-variation-settings:normal;vector-effect:none;fill:#eff2ff;fill-opacity:1;stroke-width:0.833392;stroke-linecap:butt;stroke-linejoin:miter;stroke-miterlimit:4;stroke-dasharray:none;stroke-dashoffset:0;stroke-opacity:1;-inkscape-stroke:none"
     id="rect8"
     width="128"
     height="128"
     x="0"
     y="0" /><g
     id="g8"
     transform="matrix(1.1636364,0,0,1.1636364,-2.2305417,22.980717)"><path
       d="m 54.450778,31.258897 h 0.0174 5.383356 c 0.09934,0 0.176829,-0.07247 0.176829,-0.161868 v -2.640326 c -2.260728,-0.01658 -4.521508,-0.05665 -6.781584,0.01575 -2.227512,0.09428 -4.071214,1.869879 -4.100292,3.959738 -0.04927,3.193085 -0.01185,6.386533 -0.01168,9.579818 0,0.0029 0.0026,0.0053 0.0058,0.0053 0.0032,0 0.0059,0.0023 0.0059,0.0052 v 0.02356 c 0,0.0159 0.01432,0.02879 0.03194,0.02879 h 2.894003 c 0.09934,0 0.179837,-0.07248 0.179837,-0.16186 0,-6.862275 0.0116,0.576214 0.0116,-4.463045 0,-0.0116 0.01046,-0.02098 0.02328,-0.02098 h 5.647918 c 0.09934,0 0.179837,-0.07248 0.179837,-0.16186 V 34.74675 c 0,-0.08939 -0.0805,-0.161867 -0.179837,-0.161867 h -5.497159 c -0.09934,0 -0.179837,-0.07257 -0.179837,-0.161968 V 33.26497 c 0,-1.325155 0.732811,-2.006064 2.192705,-2.006064 z"
       fill="#272742"
       id="path1-3-1"
       style="fill:#272742;fill-opacity:1;stroke-width:0.716196" /><path
       d="m 41.381998,31.258897 h 0.0174 5.383428 c 0.09927,0 0.176757,-0.07247 0.176757,-0.161868 v -2.640326 c 0,-0.0029 -0.0026,-0.0052 -0.0058,-0.0052 -2.257054,-0.0033 -4.513471,-0.05134 -6.769911,0.02095 -2.227584,0.09428 -4.071286,1.869879 -4.100364,3.959738 -0.04932,3.193085 -0.01176,6.386533 -0.01158,9.579818 0,0.0029 0.0026,0.0053 0.0058,0.0053 0.0032,0 0.0058,0.0023 0.0058,0.0052 v 0.02356 c 0,0.0159 0.01432,0.02879 0.03201,0.02879 h 2.893932 c 0.09934,0 0.179837,-0.07248 0.179837,-0.16186 0,-6.864008 0.01167,0.574591 0.01167,-4.463045 0,-0.0116 0.01038,-0.02098 0.02328,-0.02098 h 5.647848 c 0.09934,0 0.179836,-0.07248 0.179836,-0.16186 V 34.74675 c 0,-0.08939 -0.0805,-0.161867 -0.179836,-0.161867 h -5.502961 c -0.09934,0 -0.179837,-0.07257 -0.179837,-0.161968 V 33.26497 c 0,-1.325155 0.732811,-2.006064 2.192705,-2.006064 z"
       fill="#272742"
       id="path2-5-4"
       style="fill:#272742;fill-opacity:1;stroke-width:0.716196" /><path
       d="m 65.268626,28.761324 v -0.168111 c 0,-0.0894 -0.0805,-0.161867 -0.179765,-0.161867 h -2.769457 c -0.09926,0 -0.179836,0.07247 -0.179836,0.161868 v 13.315369 c 0,0.08938 0.08057,0.16186 0.179836,0.16186 h 2.769457 c 0.09927,0 0.179765,-0.07248 0.179765,-0.16186 z"
       fill="#272742"
       id="path3-0-6"
       style="fill:#272742;fill-opacity:1;stroke-width:0.716196" /><path
       d="m 83.926884,34.892106 c 0,0.03143 0,0.06285 0,0.09428 0,0.01571 0,0.03143 0,0.04714 0,0 0,0 0,0.0052 0,0 0,0 0,0.0052 0,0.230458 0.02321,0.429488 0.05815,0.618063 -0.03495,-0.298582 -0.04655,-0.576158 -0.05235,-0.822329 0,0.01571 -0.0058,0.03666 -0.0058,0.05237 z"
       fill="#272742"
       id="path4-3-3"
       style="fill:#272742;fill-opacity:1;stroke-width:0.716196" /><path
       d="m 91.569336,36.667688 c 1.461973,-0.0087 2.923989,-0.0073 4.385982,-0.0142 0.08738,-6.45e-4 0.160428,-0.05773 0.17332,-0.13529 0.538256,-3.25606 -1.606562,-8.393198 -7.328037,-8.393198 -4.779381,0 -7.444639,3.792447 -7.444639,6.798604 0.132291,5.614876 4.336857,7.45329 7.403884,7.45329 2.283088,0 4.3178,-0.949103 5.674275,-2.435925 0.06088,-0.06661 0.05013,-0.164439 -0.0222,-0.221018 l -2.09917,-1.639945 c -0.07806,-0.06131 -0.19767,-0.04992 -0.264276,0.02213 -2.186228,2.375597 -6.276193,1.605826 -7.365714,-1.251051 -0.0361,-0.08931 0.03531,-0.183203 0.140947,-0.183131 0.986989,9.31e-4 5.082626,0.0044 6.745632,-2.15e-4 z m -2.768741,-5.67769 c 1.6231,0 3.407774,0.91202 4.077231,2.666016 0.0043,0.01027 0.0086,0.02037 0.01289,0.03037 0.03008,0.0686 -0.02435,0.137238 -0.105997,0.137238 h -7.895842 c -0.120249,0 -0.206551,-0.104322 -0.166229,-0.206279 0.606904,-1.532358 2.201084,-2.627342 4.077946,-2.627342 z"
       fill="#272742"
       id="path5-7-0"
       style="fill:#272742;fill-opacity:1;stroke-width:0.716196" /><path
       d="m 78.564226,35.518 c -1.474838,-1.333312 -3.477821,-1.522118 -5.35077,-1.890821 -0.982978,-0.193795 -1.459893,-0.639004 -1.459893,-1.356575 0,-0.768209 0.807643,-1.513715 2.151953,-1.513715 1.028693,0 2.020715,0.27173 2.559111,1.393244 0.04011,0.0854 0.0757,0.172854 0.105209,0.261082 0.02886,0.08614 0.125406,0.141391 0.222808,0.121108 l 2.643693,-0.550854 c 0.08029,-0.01674 0.130061,-0.08917 0.110867,-0.161316 -0.312978,-1.111564 -1.477908,-3.593096 -5.641688,-3.593096 -2.945416,0 -5.292614,1.944894 -5.292614,4.258291 0,5.127698 7.834249,3.076341 7.834249,5.751044 0,0.760523 -0.703611,1.513751 -2.215909,1.513751 -0.703246,0 -2.519242,-0.168254 -3.011889,-1.859387 -0.02571,-0.08831 -0.123186,-0.145531 -0.221949,-0.125048 l -2.809492,0.582411 c -0.01812,0.0037 -0.01568,0.02843 -0.01275,0.0467 0.04336,0.268025 0.809918,3.879918 6.027002,3.879918 4.034106,0 5.438073,-2.571641 5.438073,-4.17449 0,-1.016138 -0.360604,-1.880371 -1.076012,-2.582243 z"
       fill="#272742"
       id="path6-3-3"
       style="fill:#272742;fill-opacity:1;stroke-width:0.716196" /><path
       d="m 29.122877,29.929093 c 0.115307,0.08801 0.289629,0.01364 0.289629,-0.122412 0,-0.311789 0,-0.604821 0,-0.908351 0,-0.0894 0.0805,-0.161882 0.179837,-0.161882 0.945879,0 1.862968,0 2.804264,0 0.09934,0 0.179837,0.07248 0.179837,0.161882 0,4.20255 0,8.386035 0,12.613451 0,0.08938 -0.0805,0.161932 -0.179837,0.161932 -0.903911,0 -1.819925,0 -2.79259,0 -0.09934,0 -0.179909,-0.07248 -0.179909,-0.16186 0,-0.253748 0,-0.51917 0,-0.824055 0,-0.146462 -0.200821,-0.219156 -0.317704,-0.117241 -0.790393,0.689338 -1.612586,1.159162 -2.60201,1.380753 -3.972365,0.885147 -7.979659,-1.456097 -8.706671,-5.169643 -0.564162,-2.875561 0.215196,-5.384445 2.90805,-7.207184 2.146145,-1.450855 5.251949,-1.607988 7.339945,-0.419018 0.369199,0.214637 0.697074,0.483382 1.077159,0.773628 z m -3.921243,9.508084 c 2.559038,-0.0052 4.321381,-1.723238 4.315508,-4.211159 -0.0058,-2.409361 -1.843702,-4.164011 -4.338785,-4.158776 -2.530004,0.01048 -4.327182,1.770364 -4.315551,4.232115 0.0058,2.41981 1.808809,4.13782 4.338828,4.13782 z"
       fill="#272742"
       id="path7-2-6"
       style="fill:#272742;fill-opacity:1;stroke-width:0.716196" /></g></svg>
