<?xml version="1.0" encoding="UTF-8" standalone="no"?>
<svg
   width="128"
   height="128"
   viewBox="0 0 128 128"
   fill="none"
   version="1.1"
   id="svg7"
   xml:space="preserve"
   xmlns="http://www.w3.org/2000/svg"
   xmlns:svg="http://www.w3.org/2000/svg"><defs
     id="defs7" /><path
     id="rect8"
     d="m 16,0 h 96 a 16,16 45 0 1 16,16 v 96 a 16,16 135 0 1 -16,16 H 16 A 16,16 45 0 1 0,112 V 16 A 16,16 135 0 1 16,0 Z"
     style="font-variation-settings:normal;vector-effect:none;fill:#eff2ff;fill-opacity:1;stroke-width:0.833392;stroke-linecap:butt;stroke-linejoin:miter;stroke-miterlimit:4;stroke-dasharray:none;stroke-dashoffset:0;stroke-opacity:1;-inkscape-stroke:none" /><path
     d="m 89.825393,29.829855 c 0.74036,0.565095 1.859648,0.08757 1.859648,-0.785981 0,-2.001929 0,-3.883426 0,-5.832324 0,-0.574017 0.516856,-1.039411 1.154687,-1.039411 6.073288,0 11.961722,0 18.005572,0 0.63784,0 1.1547,0.465377 1.1547,1.039411 0,26.983667 0,53.844923 0,80.98825 0,0.57389 -0.51686,1.03973 -1.1547,1.03973 -5.80381,0 -11.68534,0 -17.930612,0 -0.637847,0 -1.155159,-0.46538 -1.155159,-1.03927 0,-1.62926 0,-3.33348 0,-5.291076 0,-0.940408 -1.289424,-1.407152 -2.039912,-0.752784 -5.074944,4.4261 -10.354064,7.44274 -16.706944,8.86552 -25.5057,5.68335 -51.235671,-9.34928 -55.903654,-33.193159 -3.622366,-18.46336 1.381727,-34.572368 18.671958,-46.27578 13.779938,-9.315629 33.721632,-10.324542 47.128208,-2.690426 2.370544,1.378141 4.47576,3.103692 6.916208,4.9673 z M 64.647937,90.879217 C 81.078969,90.845537 92.394593,79.814673 92.356881,63.840273 92.319921,48.370284 80.518865,37.104053 64.498481,37.137667 48.253865,37.204987 36.714577,48.504793 36.789256,64.311169 c 0.03697,15.537072 11.613973,26.568048 27.858681,26.568048 z"
     fill="#272742"
     id="path7-2-6"
     style="fill:#272742;fill-opacity:1;stroke-width:4.59854" /></svg>
