<?xml version="1.0" encoding="UTF-8" standalone="no"?>
<svg
   viewBox="0 0 128 128"
   version="1.1"
   id="svg1"
   width="128"
   height="128"
   xmlns="http://www.w3.org/2000/svg"
   xmlns:svg="http://www.w3.org/2000/svg">
  <defs
     id="defs1" />
  <!--! Font Awesome Pro 6.4.0 by @fontawesome - https://fontawesome.com License - https://fontawesome.com/license (Commercial License) Copyright 2023 Fonticons, Inc. -->
  <path
     id="path1"
     style="fill:#ffffff;stroke-width:0.249864"
     d="m 59.396484,2.0136719 c -2.922038,0.082798 -6.122158,0.6159605 -8.234375,2.8222656 -1.515602,4.8113534 -2.197129,9.8284475 -3.423828,14.7128905 -2.326205,3.096069 -6.185667,4.236753 -9.385481,6.14691 -1.1912,0.667706 -2.18522,1.605348 -3.126238,2.581606 -5.101756,-1.602015 -10.183584,-3.274546 -15.297238,-4.834255 -1.886597,-0.51219 -3.617352,0.781906 -4.7362,2.174455 -1.818245,2.214422 -3.114519,4.796853 -4.719076,7.156533 -1.4815103,3.233047 -3.8817204,6.097332 -4.5736574,9.653657 -0.1776151,1.259565 -0.1381825,2.786988 0.9319914,3.650372 3.310541,3.455665 7.079348,6.425548 10.521134,9.74416 1.518194,3.579741 0.571145,7.506348 0.626748,11.248369 -0.01407,1.358161 0.305471,2.680055 0.677939,3.97624 -3.948957,3.61183 -7.939307,7.181053 -11.8594615,10.822738 -1.4078019,1.371156 -1.1491296,3.542547 -0.4924176,5.21045 0.9945457,2.63504 2.5498019,5.010522 3.7822281,7.529618 2.086025,2.901094 3.369828,6.425719 6.099091,8.828659 1.010663,0.80524 2.37913,1.57926 3.689807,1.07674 4.638103,-1.11909 9.072121,-2.91881 13.6538,-4.23188 3.61436,0.43895 6.433746,2.9261 9.438345,4.72389 1.337584,0.85355 2.83589,1.39134 4.376108,1.74291 0.930117,4.34078 1.932129,8.67178 2.822266,13.01758 -0.0156,2.66278 1.901472,5.2473 4.558717,5.75923 1.543298,0.33135 3.119281,-0.0586 4.680407,0.0938 4.459358,0.10248 9.014769,0.91835 13.409313,-0.20068 1.470947,-0.42779 2.981161,-1.12853 3.955977,-2.32775 1.497267,-4.78249 2.176304,-9.76666 3.395586,-14.61951 2.337699,-3.10986 6.221827,-4.25109 9.432323,-6.17626 1.172586,-0.66167 2.149208,-1.59215 3.079396,-2.552259 5.096334,1.600799 10.173842,3.268309 15.281582,4.828549 1.89588,0.52663 3.64155,-0.78348 4.76529,-2.18402 1.80814,-2.2128 3.10597,-4.784103 4.70348,-7.139409 1.47501,-3.216504 3.85623,-6.067268 4.56594,-9.598943 0.15098,-1.080539 0.18492,-2.360806 -0.50334,-3.260179 -3.29161,-3.537482 -7.01954,-6.454605 -10.51129,-9.790726 -0.77376,-0.628858 -0.84506,-1.738791 -1.09073,-2.652147 -0.73787,-4.157423 0.80779,-8.462975 -0.53738,-12.547148 -0.3356,-0.612241 0.57307,-0.855609 0.86525,-1.281874 2.53148,-2.280588 5.02754,-4.601475 7.54858,-6.891059 1.58763,-1.450341 3.56572,-2.734581 4.3384,-4.834607 0.45118,-1.575281 -0.52832,-3.058499 -1.01808,-4.500305 -1.18409,-2.78581 -2.53562,-5.514109 -4.2464,-8.015048 -1.67754,-2.645955 -2.9707,-5.701552 -5.53902,-7.634482 -0.93754,-0.622024 -2.12608,-1.198286 -3.24992,-0.737133 -4.64339,1.117696 -9.089625,2.898314 -13.67705,4.209234 C 90.725431,27.269623 87.891438,24.7403 84.850296,22.938589 83.538712,22.106263 82.066196,21.594802 80.560547,21.246094 79.63043,16.905313 78.628418,12.574318 77.738281,8.2285156 77.75387,5.5650044 75.83647,2.9824022 73.179637,2.4689394 71.667822,2.1380554 70.122987,2.5240108 68.593287,2.3753733 65.526753,2.2812247 62.46796,1.9353683 59.396484,2.0136719 Z M 64.90625,41.972656 c 4.885143,-0.0078 9.730872,1.897576 13.279857,5.25898 4.487996,3.347997 7.266054,8.740834 7.621393,14.305591 0.628275,8.596116 -3.687283,17.568319 -11.217145,21.933279 -3.345827,1.961433 -7.284809,2.76735 -11.139172,2.526175 -9.422052,-0.04905 -18.254887,-6.99764 -20.688203,-16.07215 -0.801989,-3.150036 -1.296832,-6.454792 -0.686902,-9.687098 1.18613,-7.060013 6.408472,-12.977467 12.785264,-15.970529 3.126744,-1.483236 6.578464,-2.311725 10.044908,-2.294248 z" />
</svg>
