<?xml version="1.0" encoding="UTF-8" standalone="no"?>
<svg
   viewBox="0 0 128 128"
   version="1.1"
   id="svg1"
   width="128"
   height="128"
   xmlns="http://www.w3.org/2000/svg"
   xmlns:svg="http://www.w3.org/2000/svg">
  <defs
     id="defs1" />
  <!--! Font Awesome Pro 6.4.0 by @fontawesome - https://fontawesome.com License - https://fontawesome.com/license (Commercial License) Copyright 2023 Fonticons, Inc. -->
  <path
     d="M 64.000003,0 C 99.360001,0 128,28.639998 128,63.999996 A 64.103996,64.103996 0 0 1 84.400002,124.71999 c -3.2,0.64 -4.4,-1.36 -4.4,-3.04 0,-2.16 0.08,-9.04 0.08,-17.6 0,-5.999997 -2,-9.839996 -4.32,-11.839996 14.24,-1.6 29.199998,-7.04 29.199998,-31.599998 0,-7.04 -2.48,-12.719999 -6.559999,-17.199999 0.64,-1.6 2.879999,-8.159999 -0.64,-16.959999 0,0 -5.36,-1.76 -17.599999,6.56 -5.119999,-1.44 -10.559999,-2.16 -15.999999,-2.16 -5.439999,0 -10.879999,0.72 -15.999999,2.16 -12.239999,-8.24 -17.599998,-6.56 -17.599998,-6.56 -3.52,8.8 -1.28,15.359999 -0.64,16.959999 -4.08,4.48 -6.56,10.239999 -6.56,17.199999 0,24.479998 14.879999,29.999998 29.119998,31.599998 -1.84,1.6 -3.52,4.399999 -4.08,8.559996 -3.679999,1.68 -12.879999,4.4 -18.639998,-5.279997 -1.2,-1.919999 -4.8,-6.639999 -9.84,-6.559999 -5.359999,0.08 -2.16,3.04 0.08,4.24 2.72,1.519999 5.84,7.199996 6.56,9.039996 1.28,3.6 5.44,10.48 21.519998,7.52 0,5.36 0.08,10.4 0.08,11.92 0,1.68 -1.2,3.6 -4.399999,3.04 A 63.959996,63.959996 0 0 1 7.7116839e-6,63.999996 C 7.7116839e-6,28.639998 28.640006,0 64.000003,0 Z"
     id="path1"
     style="stroke-width:8;fill:#ffffff" />
</svg>
