<?xml version="1.0" encoding="UTF-8" standalone="no"?>
<svg
   viewBox="0 0 128 128"
   version="1.1"
   id="svg1"
   width="128"
   height="128"
   xml:space="preserve"
   xmlns="http://www.w3.org/2000/svg"
   xmlns:svg="http://www.w3.org/2000/svg"><defs
     id="defs1" /><!--! Font Awesome Pro 6.4.0 by @fontawesome - https://fontawesome.com License - https://fontawesome.com/license (Commercial License) Copyright 2023 Fonticons, Inc. --><path
     id="path1"
     style="fill:#ffffff;fill-opacity:1;stroke-width:0.211947"
     d="m 96.361328,16.195312 c -5.01902,0.119268 -10.00493,1.605513 -14.21875,4.34375 -2.476036,1.02815 -4.399826,3.940964 -3.52364,6.631508 0.649798,1.812202 2.410243,3.186778 4.367993,3.175764 1.523702,0.08639 2.988006,-0.583473 4.086259,-1.605302 5.390672,-3.728165 12.745077,-3.892639 18.57474,-1.096227 4.42084,2.03556 8.03027,5.838643 9.62124,10.461431 2.38265,5.930971 1.12314,12.913864 -2.54205,18.044873 -1.17895,1.753551 -2.75281,3.172565 -4.29592,4.59115 -7.67263,7.600236 -15.166249,15.392709 -22.986659,22.855499 -4.986424,4.223668 -12.261835,5.105724 -18.324448,2.918065 -4.6914,-1.611192 -8.742887,-5.124182 -10.757768,-9.686661 -3.174997,-6.431444 -2.115851,-14.566783 2.282206,-20.170959 1.472067,-2.312083 0.0091,-5.476215 -2.292638,-6.607972 -1.667213,-0.938875 -3.727751,-0.310649 -5.072507,0.903234 -2.572832,2.287168 -3.624546,5.698068 -4.897611,8.784803 -2.878085,8.028776 -1.375071,17.245545 3.146045,24.373269 2.411749,3.814359 5.717067,7.087348 9.655774,9.310338 0.269526,0.146323 0.887962,0.486136 1.304853,0.683183 6.995817,3.73421 15.555015,4.07717 22.962189,1.375821 4.585777,-1.626966 8.730244,-4.453195 11.915401,-8.13206 7.816953,-7.834589 15.671433,-15.633982 23.465673,-23.489807 8.2837,-9.025542 9.48725,-23.577867 3.08923,-33.968781 -2.43494,-3.809136 -5.60357,-7.220301 -9.52446,-9.524997 -4.79951,-2.887273 -10.44438,-4.308372 -16.035152,-4.169922 z M 53.496094,30.767578 C 45.627606,31.066845 37.860738,34.581623 32.704677,40.580473 24.864153,48.43863 16.9861,56.261596 9.1682893,64.140988 0.88459452,73.16653 -0.31895574,87.718855 6.0790589,98.109769 c 2.4349394,3.809131 5.6035731,7.220301 9.5244571,9.525001 8.632793,5.19311 20.10429,5.70478 28.908203,0.63085 1.225282,-0.82257 2.707723,-1.29391 3.65039,-2.49218 1.466075,-1.61865 2.054333,-4.30305 0.582225,-6.110436 -1.615493,-2.557933 -5.596756,-2.608104 -7.625193,-0.532145 -5.119215,3.637461 -12.096968,4.034421 -17.818546,1.641751 -4.81204,-1.923875 -8.834704,-5.879187 -10.536261,-10.809545 -2.427301,-5.94925 -1.175474,-12.98144 2.511621,-18.13684 1.163359,-1.726066 2.700726,-3.139775 4.23388,-4.525086 7.69583,-7.620374 15.210235,-15.422711 23.045624,-22.898897 4.986424,-4.223668 12.261835,-5.105724 18.324448,-2.918065 4.691698,1.611013 8.742513,5.124503 10.757768,9.686661 3.174998,6.436411 2.114995,14.574367 -2.2783,20.186584 -1.460475,2.280044 -0.05047,5.404342 2.200059,6.567601 1.643843,0.976112 3.726647,0.409294 5.085689,-0.795692 2.557342,-2.206734 3.617452,-5.55052 4.863885,-8.576465 C 84.246995,61.259751 83.286981,52.887089 79.716372,46.049672 76.863905,40.526867 72.193785,35.915789 66.486043,33.396338 62.468026,31.444446 57.949626,30.59831 53.496094,30.767578 Z" /></svg>
