<?xml version="1.0" encoding="UTF-8" standalone="no"?>
<svg
   viewBox="0 0 128 128"
   version="1.1"
   id="svg1"
   width="128"
   height="128"
   xmlns="http://www.w3.org/2000/svg"
   xmlns:svg="http://www.w3.org/2000/svg">
  <defs
     id="defs1" />
  <!--! Font Awesome Pro 6.4.0 by @fontawesome - https://fontawesome.com License - https://fontawesome.com/license (Commercial License) Copyright 2023 Fonticons, Inc. -->
  <path
     id="path1"
     style="fill:#ffffff;stroke-width:0.249683"
     d="M 15.257812,17.998047 C 8.5033695,18.44155 2.3671084,24.277001 2.0890127,31.130049 2.0635143,52.28988 2.1050974,73.452096 2.0682279,94.611403 1.3021527,101.87709 7.1476267,109.18859 14.457599,109.86172 c 3.91302,0.11746 7.833222,0.025 11.749037,0.0603 27.996099,0.0309 55.99316,-0.002 83.988674,0.0194 7.04998,0.85124 14.36361,-4.38435 15.51492,-11.45237 0.26541,-2.160087 0.0894,-4.351002 0.16525,-6.524054 0.13223,-19.52899 -0.0201,-39.059842 0.0563,-58.588107 0.76634,-7.265592 -5.08009,-14.576673 -12.38937,-15.250315 -3.91302,-0.117456 -7.83322,-0.02503 -11.74904,-0.06027 -28.130176,-0.03491 -56.261794,0.01036 -84.391093,-0.02538 -0.712883,-0.07095 -1.429285,-0.08536 -2.144455,-0.04287 z M 107.67773,26 c 2.16854,0.03223 4.36479,0.08618 6.49699,0.458125 2.06832,0.859068 3.47198,2.905102 3.69442,5.112187 0.29254,2.285416 -0.15219,4.590108 0.12305,6.878907 C 104.04237,49.915973 90.075798,61.364036 76.135796,72.841667 71.613159,77.420023 64.383669,79.426487 58.28125,77.082031 56.087836,76.302513 54.302914,74.784413 52.541888,73.316316 39.230508,62.524663 26.054962,51.563097 12.77215,40.737394 11.268771,39.72339 9.8216979,38.185473 9.9296875,36.242188 10.154507,34.81158 9.8612919,33.3459 10.124061,31.907767 c 0.234057,-2.330627 1.518533,-4.777788 3.87008,-5.536673 1.828144,-0.588541 3.781464,-0.234822 5.666406,-0.332032 26.25626,0.009 52.513001,-0.01791 78.76896,0.01342 3.082603,0.07458 6.165373,-0.06987 9.248223,-0.05249 z M 13.335938,51.513672 c 11.317403,9.307234 22.66308,18.582436 33.96283,27.909672 7.522527,7.257534 20.002892,8.808085 28.948301,3.304037 2.105001,-1.332853 3.932705,-3.05248 5.908735,-4.563794 11.992913,-9.69381 23.811876,-19.596072 35.777786,-29.32179 0.009,14.572878 -0.0179,29.146953 0.0134,43.719082 0.17432,2.726559 0.0263,5.85222 -2.03098,7.898101 -1.32872,1.32687 -3.28332,1.59813 -5.07657,1.49024 -30.525254,0.004 -61.051927,-0.008 -91.576296,0.006 -2.524185,0.0876 -5.405304,0.12793 -7.376435,-1.71254 -1.228926,-1.161664 -1.9108157,-2.87832 -1.751254,-4.566744 -0.1750276,-15.61787 -0.0025,-31.236822 -0.07882,-46.855134 1.093099,0.897787 2.186198,1.795573 3.279297,2.69336 z" />
</svg>
